<svg id="startupMobile" version="1.0" xmlns="http://www.w3.org/2000/svg" width="280pt" height="234pt" viewBox="0 0 280 234"
            preserveAspectRatio="xMidYMid meet">
            <g transform="translate(0,234) scale(0.08,-0.08)" fill="blue" stroke="black" stroke-width="40">
                <path d="M1320 1980 c-126 -23 -276 -94 -362 -170 -60 -54 -113 -143 -124
-208 -4 -23 -11 -45 -15 -48 -5 -3 -42 -14 -82 -25 -208 -58 -395 -191 -498
-354 -122 -195 -115 -445 17 -646 164 -250 490 -384 841 -349 208 21 359 75
492 177 156 118 242 333 202 503 -7 33 -1 47 124 247 179 286 236 358 345 432
86 59 87 58 38 -5 -84 -106 -124 -216 -201 -546 -13 -55 -26 -80 -69 -132 -67
-81 -116 -162 -133 -220 -19 -64 0 -62 59 7 45 50 127 202 142 260 21 87 418
429 652 561 155 88 345 161 267 103 -149 -111 -361 -303 -482 -439 -241 -269
-364 -478 -379 -647 -6 -64 -4 -75 21 -126 29 -60 66 -90 123 -101 40 -8 104
9 123 33 13 14 10 14 -20 -1 -43 -23 -112 -24 -145 -2 -43 27 -59 72 -58 156
2 193 148 453 425 754 94 103 271 265 369 338 37 28 65 55 61 61 -3 6 -1 7 6
3 6 -4 17 -3 24 2 7 6 62 15 122 21 235 24 315 44 315 80 0 26 -27 34 -110 33
-78 -1 -166 -28 -257 -78 -34 -19 -94 -44 -134 -55 -138 -38 -362 -162 -533
-296 -102 -79 -292 -250 -323 -291 -15 -20 -28 -31 -31 -24 -5 16 125 414 160
487 33 70 92 145 113 145 8 0 17 5 21 11 4 8 -3 9 -23 5 -46 -10 -112 17 -282
119 -197 117 -278 158 -394 197 -83 28 -106 32 -227 34 -74 2 -155 -1 -180 -6z
m292 -20 c134 -19 261 -75 508 -221 85 -50 170 -97 188 -103 l34 -12 -69 -51
c-101 -76 -214 -196 -376 -400 l-144 -182 -23 42 c-13 23 -44 64 -70 91 -33
36 -48 62 -57 100 l-11 51 40 43 c22 24 46 59 54 77 18 43 18 126 0 168 -14
35 -84 102 -94 92 -4 -4 1 -11 11 -16 48 -27 87 -96 87 -155 0 -41 -30 -120
-60 -156 -17 -21 -35 -38 -38 -38 -4 0 -16 15 -25 33 -68 126 -226 212 -432
237 -91 11 -231 8 -279 -7 -17 -5 -18 -1 -12 28 48 247 419 429 768 379z
m1873 -249 c10 -16 -23 -39 -72 -49 -73 -16 -240 -35 -255 -30 -17 6 37 34
122 64 67 24 193 33 205 15z m-2348 -166 c158 -12 320 -90 395 -190 46 -61 47
-80 7 -100 -29 -15 -34 -15 -98 10 -117 44 -218 58 -378 52 l-141 -6 -26 37
c-32 46 -56 114 -56 158 0 30 3 34 33 39 40 6 134 11 167 8 14 -1 57 -5 97 -8z
m-296 -117 c5 -20 25 -57 43 -81 l34 -44 -62 -17 c-138 -39 -266 -136 -327
-248 -33 -61 -34 -67 -34 -174 0 -106 1 -113 34 -178 55 -108 144 -172 293
-214 94 -26 338 -23 433 5 216 64 346 158 477 344 l43 61 7 -54 c8 -58 -4
-165 -26 -228 -59 -171 -236 -312 -474 -378 -89 -24 -112 -27 -287 -27 -168 0
-199 3 -268 23 -286 82 -491 274 -547 512 -16 67 -16 209 -1 270 63 241 266
431 551 513 l85 25 8 -36 c5 -21 13 -54 18 -74z m398 -128 c87 -11 241 -55
241 -69 0 -19 -100 -36 -205 -36 -125 0 -220 24 -290 72 l-40 28 35 6 c57 10
170 10 259 -1z m-264 -41 c86 -58 145 -73 295 -73 106 -1 146 3 188 17 l52 19
46 -27 47 -27 -7 -52 c-14 -124 -115 -254 -249 -319 -211 -104 -491 -99 -577
10 -28 35 -24 106 9 151 69 98 326 138 453 72 50 -26 61 -20 16 8 -54 34 -153
47 -248 34 -101 -15 -167 -42 -215 -92 -33 -34 -39 -47 -43 -94 -6 -70 17
-104 94 -142 102 -50 315 -43 464 16 161 64 288 206 309 348 l7 47 42 -45 c23
-25 52 -64 64 -86 l22 -42 -42 -50 c-61 -72 -200 -202 -273 -254 -166 -118
-325 -167 -506 -155 -319 21 -486 211 -402 460 43 130 146 222 316 282 37 13
73 24 80 25 7 0 33 -14 58 -31z m616 -37 c4 -18 5 -32 2 -32 -3 0 -48 27 -62
37 -7 5 33 33 44 29 5 -1 12 -17 16 -34z m443 -424 c-34 -68 -106 -178 -116
-178 -25 0 21 100 87 190 55 73 69 68 29 -12z" />
            </g>
        </svg>